<svg
              xmlns="http://www.w3.org/2000/svg"
              width="30"
              height="30"
              viewBox="0 0 30 30"
              fill="none"
            >
              <path
                d="M0 11.2C0 7.27963 0 5.31945 0.762954 3.82207C1.43407 2.50493 2.50493 1.43407 3.82207 0.762954C5.31945 0 7.27963 0 11.2 0H18.8C22.7204 0 24.6805 0 26.1779 0.762954C27.4951 1.43407 28.5659 2.50493 29.237 3.82207C30 5.31945 30 7.27963 30 11.2V18.8C30 22.7204 30 24.6805 29.237 26.1779C28.5659 27.4951 27.4951 28.5659 26.1779 29.237C24.6805 30 22.7204 30 18.8 30H11.2C7.27963 30 5.31945 30 3.82207 29.237C2.50493 28.5659 1.43407 27.4951 0.762954 26.1779C0 24.6805 0 22.7204 0 18.8V11.2Z"
                fill="#FF9500"
              />
              <path
                fillRule="evenodd"
                clipRule="evenodd"
                d="M15 5.37988C20.5228 5.37988 25 9.45002 25 14.4708C25 19.4916 20.5228 23.5617 15 23.5617C14.1533 23.5617 13.3311 23.466 12.5459 23.2859C12.3974 23.2519 12.2287 23.4076 11.9472 23.6677C11.6067 23.9822 11.1011 24.4492 10.2663 24.9174C9.19977 25.5155 7.72206 25.4636 7.47197 25.3587C7.2322 25.2581 7.41675 25.0582 7.74176 24.7062C7.96661 24.4626 8.25868 24.1462 8.52398 23.7395C9.17277 22.745 8.90469 21.5609 8.61362 21.3478C6.33757 19.6815 5 17.3343 5 14.4708C5 9.45002 9.47715 5.37988 15 5.37988ZM10 15.9999C10.8284 15.9999 11.5 15.3283 11.5 14.4999C11.5 13.6715 10.8284 12.9999 10 12.9999C9.17157 12.9999 8.5 13.6715 8.5 14.4999C8.5 15.3283 9.17157 15.9999 10 15.9999ZM15 15.9999C15.8284 15.9999 16.5 15.3283 16.5 14.4999C16.5 13.6715 15.8284 12.9999 15 12.9999C14.1716 12.9999 13.5 13.6715 13.5 14.4999C13.5 15.3283 14.1716 15.9999 15 15.9999ZM21.5 14.4999C21.5 15.3283 20.8284 15.9999 20 15.9999C19.1716 15.9999 18.5 15.3283 18.5 14.4999C18.5 13.6715 19.1716 12.9999 20 12.9999C20.8284 12.9999 21.5 13.6715 21.5 14.4999Z"
                fill="white"
              />
            </svg>