<svg
            width="40"
            height="40"
            viewBox="0 0 40 40"
            fill="none"
            xmlns="http://www.w3.org/2000/svg"
          >
            <path
              d="M20 36.6668C10.7953 36.6668 3.33337 29.2048 3.33337 20.0002C3.33337 10.7954 10.7953 3.3335 20 3.3335C29.2047 3.3335 36.6667 10.7954 36.6667 20.0002C36.6667 29.2048 29.2047 36.6668 20 36.6668ZM20 33.3335C27.3639 33.3335 33.3334 27.364 33.3334 20.0002C33.3334 12.6364 27.3639 6.66683 20 6.66683C12.6362 6.66683 6.66671 12.6364 6.66671 20.0002C6.66671 27.364 12.6362 33.3335 20 33.3335ZM19.5162 25.4883C18.8653 26.1392 17.8101 26.1392 17.1592 25.4883L12.4452 20.7743C11.7943 20.1234 11.7943 19.0682 12.4452 18.4173C13.096 17.7664 14.1514 17.7663 14.8023 18.4173L18.3377 21.9528L26.5874 13.7032C27.2382 13.0523 28.2935 13.0523 28.9444 13.7032C29.5952 14.3541 29.5952 15.4093 28.9444 16.0602L19.5162 25.4883Z"
              fill="#16B425"
            />
          </svg>