<svg
            width="40"
            height="40"
            viewBox="0 0 40 40"
            fill="none"
            xmlns="http://www.w3.org/2000/svg"
          >
            <path
              d="M20 36.6668C10.7953 36.6668 3.33337 29.2048 3.33337 20.0002C3.33337 10.7954 10.7953 3.3335 20 3.3335C29.2047 3.3335 36.6667 10.7954 36.6667 20.0002C36.6667 29.2048 29.2047 36.6668 20 36.6668ZM20 33.3335C27.3639 33.3335 33.3334 27.364 33.3334 20.0002C33.3334 12.6364 27.3639 6.66683 20 6.66683C12.6362 6.66683 6.66671 12.6364 6.66671 20.0002C6.66671 27.364 12.6362 33.3335 20 33.3335ZM20 17.6432L23.5355 14.1076C24.1864 13.4567 25.2417 13.4567 25.8926 14.1076C26.5434 14.7585 26.5434 15.8137 25.8926 16.4646L22.357 20.0002L25.8925 23.5357C26.5434 24.1865 26.5434 25.2418 25.8925 25.8927C25.2417 26.5435 24.1864 26.5435 23.5355 25.8927L20 22.3572L16.4645 25.8927C15.8136 26.5435 14.7584 26.5435 14.1075 25.8927C13.4566 25.2418 13.4566 24.1865 14.1075 23.5357L17.643 20.0002L14.1075 16.4646C13.4566 15.8138 13.4566 14.7585 14.1075 14.1076C14.7584 13.4567 15.8136 13.4567 16.4645 14.1076L20 17.6432Z"
              fill="#FF0000"
            />
          </svg>