<svg
                xmlns="http://www.w3.org/2000/svg"
                width="77"
                height="76"
                viewBox="0 0 77 76"
                fill="none"
              >
                <g filter="url(#filter0_d_2224_2761)">
                  <path
                    className="logo-fill"
                    fillRule="evenodd"
                    clipRule="evenodd"
                    d="M13.7081 0.396706C13.4553 0.366231 13.1197 0.399625 12.8758 0.479511C12.8055 0.502531 12.6744 0.565183 12.5845 0.618712C12.4224 0.715209 12.3659 0.764436 11.9786 1.14649C11.7867 1.33575 11.5616 1.55754 11.2756 1.83909C11.1784 1.93476 11.0408 2.07026 10.9699 2.14019C10.8989 2.21012 10.599 2.50513 10.3034 2.79577C10.0079 3.0864 9.72798 3.36913 9.68145 3.42407C9.4448 3.70346 9.31703 4.12194 9.35456 4.49475C9.37245 4.67257 9.47034 5.04821 9.89707 6.57672C9.94229 6.7386 10.0614 7.16888 10.1618 7.53285C10.2622 7.89682 10.3662 8.27321 10.3929 8.36929C10.4196 8.46544 10.4789 8.68048 10.5247 8.84728C10.5706 9.01401 10.6299 9.2291 10.6565 9.32517C10.6831 9.42124 10.7414 9.63217 10.786 9.79396C10.8306 9.95574 10.9714 10.4646 11.0988 10.9247C11.2262 11.3848 11.3804 11.9433 11.4415 12.1656C11.5025 12.3879 11.5916 12.7105 11.6393 12.8825C11.6871 13.0545 11.8588 13.675 12.0208 14.2615C12.1828 14.8479 12.344 15.4312 12.379 15.5576C12.4409 15.7812 12.5131 16.0426 12.6432 16.5136C12.678 16.64 12.7364 16.8509 12.7728 16.9824C12.8092 17.1139 12.943 17.5979 13.0701 18.0579C13.1972 18.518 13.3299 18.9978 13.3649 19.1243C13.4 19.2507 13.4676 19.4948 13.5152 19.6667C13.5628 19.8387 13.6438 20.1323 13.6953 20.3193C13.7467 20.5063 13.909 21.0937 14.0559 21.6246C14.2028 22.1555 14.3446 22.6685 14.3711 22.7645C14.3976 22.8605 14.4485 23.0446 14.4841 23.1735C14.5197 23.3025 14.578 23.5134 14.6137 23.6423C14.694 23.933 14.7255 24.0474 14.9749 24.952C15.085 25.3514 15.2131 25.8147 15.2597 25.9816C15.3657 26.3618 15.441 26.6339 15.5346 26.9746C15.5748 27.1211 15.6425 27.3652 15.6848 27.517C15.7272 27.6688 15.7993 27.9295 15.845 28.0961C15.9192 28.3673 16.1493 29.1997 16.3227 29.8243C16.3577 29.9508 16.4159 30.1617 16.4519 30.293C16.5378 30.6067 16.8448 31.7176 17.031 32.3889C17.2002 32.9988 17.3353 33.4876 17.4552 33.924C17.501 34.0908 17.5615 34.31 17.5896 34.4111C17.6676 34.6919 17.8 35.1708 17.8845 35.4775C17.9262 35.6291 17.9905 35.8608 18.0272 35.9924C18.0639 36.1239 18.1326 36.3721 18.1799 36.544C18.2894 36.9421 18.3747 37.2511 18.4614 37.5642C18.4992 37.7008 18.5586 37.9162 18.5934 38.043C18.6826 38.368 18.8501 38.973 19.0309 39.6234C19.0773 39.7903 19.124 39.9599 19.1346 40.0002C19.1451 40.0404 19.2056 40.2597 19.2688 40.4873C19.4423 41.1117 19.5118 41.3625 19.5616 41.5445C19.6161 41.7434 19.7552 42.2481 19.843 42.5647C19.994 43.1101 20.3747 44.4868 20.4326 44.6974C20.4674 44.8238 20.5256 45.0347 20.5621 45.1662C20.681 45.5951 20.7289 45.7684 20.8136 46.0762C20.8595 46.2431 20.9258 46.4829 20.9608 46.6093C20.9958 46.7358 21.1285 47.2157 21.2557 47.6758C21.3829 48.1358 21.5086 48.5909 21.5352 48.6869C21.6064 48.944 21.6347 49.0141 21.7407 49.194C21.9012 49.4665 22.1023 49.6645 22.3861 49.8293C22.5213 49.9078 22.5616 49.9232 22.795 49.9853C23.0247 50.0465 23.0728 50.0542 23.2217 50.0539C23.4818 50.0532 23.4906 50.0514 24.5968 49.7629C24.9997 49.6578 25.4361 49.5444 25.6774 49.4821C25.8919 49.4267 26.3292 49.3131 26.6929 49.2183C26.7749 49.1969 27.0882 49.1155 27.3891 49.0374C27.9985 48.8794 28.1857 48.8088 28.3946 48.6582C28.7473 48.4041 28.9695 48.0621 29.0621 47.631C29.1276 47.3257 29.1152 47.1168 29.0082 46.7251C28.9255 46.4224 28.8296 46.0736 28.7472 45.7763C28.7108 45.6448 28.6513 45.4296 28.6152 45.2983C28.579 45.1669 28.5056 44.9021 28.4521 44.7098C28.3215 44.2403 28.1877 43.754 28.1614 43.6531C28.1495 43.6077 28.115 43.4836 28.0848 43.3772C28.0266 43.1726 27.9819 43.0113 27.662 41.851C27.3172 40.6009 27.2136 40.2264 27.087 39.7733C27.0433 39.6164 26.9689 39.3475 26.9218 39.1758C26.8747 39.004 26.7985 38.7269 26.7523 38.5601C26.7062 38.3932 26.6046 38.0251 26.5265 37.7421C26.4484 37.459 26.3455 37.0866 26.2979 36.9147C26.2099 36.5974 26.1337 36.3215 26.0173 35.899C25.9818 35.7701 25.931 35.586 25.9043 35.49C25.8777 35.3939 25.7738 35.0175 25.6734 34.6536C25.5731 34.2896 25.454 33.8594 25.4088 33.6974C25.3636 33.5355 25.2741 33.2128 25.2101 32.9803C25.1461 32.7478 25.0639 32.45 25.0276 32.3186C24.9913 32.1871 24.9324 31.9741 24.8968 31.8451C24.8613 31.7162 24.8017 31.5011 24.7644 31.3671C24.7271 31.233 24.6328 30.8917 24.5547 30.6087C24.3804 29.9767 24.1602 29.1792 24.075 28.8714C24.04 28.745 23.9737 28.5051 23.9276 28.3383C23.8815 28.1714 23.8153 27.9315 23.7803 27.8052C23.7454 27.6788 23.6792 27.4388 23.633 27.272C23.587 27.1052 23.5206 26.8652 23.4855 26.7388C23.4505 26.6123 23.3612 26.2897 23.2872 26.0218C23.2133 25.7538 23.1242 25.4312 23.0892 25.3048C23.0542 25.1784 22.9878 24.9384 22.9418 24.7716C22.8956 24.6048 22.8294 24.3648 22.7943 24.2384C22.7593 24.112 22.597 23.5246 22.4335 22.9331C22.2701 22.3416 22.1077 21.7542 22.0727 21.6278C22.0378 21.5014 21.9714 21.2614 21.9253 21.0946C21.8792 20.9277 21.8128 20.6878 21.7779 20.5614C21.7429 20.435 21.6619 20.1414 21.5979 19.9089C21.5339 19.6764 21.4379 19.3289 21.3845 19.1367C21.2783 18.7544 21.2394 18.6142 20.9394 17.5279C20.8934 17.3611 20.8271 17.1212 20.792 16.9948C20.757 16.8683 20.676 16.5747 20.6121 16.3422C20.5481 16.1097 20.452 15.7622 20.3986 15.57C20.2481 15.0286 20.1357 14.6211 20.1146 14.5406C20.104 14.5003 20.0686 14.3721 20.0358 14.2556C20.0031 14.1392 19.9434 13.924 19.9032 13.7775C19.863 13.631 19.8034 13.4158 19.7707 13.2994C19.738 13.183 19.6578 12.8934 19.5924 12.6558C19.5271 12.4183 19.4448 12.1205 19.4098 11.994C19.3747 11.8676 19.3004 11.5987 19.2448 11.3965C19.118 10.9362 19.0358 10.6386 18.9479 10.3211C18.8296 9.89461 18.7594 9.63489 18.7608 9.6296C18.7616 9.62681 27.2904 11.9096 37.7138 14.7025C54.1432 19.1046 56.6868 19.7829 56.8254 19.7987C57.2118 19.8429 57.5559 19.7731 57.8896 19.583C58.1654 19.4258 58.3619 19.2335 58.5294 18.9568L58.5982 18.8431L59.2142 16.5616C59.8119 14.3474 59.8303 14.2757 59.8366 14.1293C59.8675 13.412 59.4583 12.7666 58.7877 12.4753C58.6596 12.4196 55.6809 11.6185 36.247 6.41273C18.3028 1.60601 13.825 0.410804 13.7081 0.396706ZM25.8668 12.9017C25.8392 12.898 25.7664 12.8932 25.705 12.891C25.0705 12.8691 24.4893 13.1863 24.1542 13.7374C24.045 13.917 23.9989 14.0755 23.4132 16.2841C22.7888 18.639 22.8216 18.4949 22.8429 18.787C22.8835 19.3426 23.2082 19.8471 23.7206 20.1506L23.8367 20.2193L42.8642 25.3219C53.3293 28.1283 61.8998 30.4303 61.9097 30.4373C61.9224 30.4464 61.9059 30.4713 61.8547 30.5206C61.8145 30.5592 61.7053 30.6662 61.612 30.7583C61.5187 30.8503 61.063 31.2989 60.5993 31.7552C60.1355 32.2113 59.6156 32.7232 59.4439 32.8926C59.2722 33.0619 59.0396 33.2906 58.9271 33.401C58.8145 33.5113 58.582 33.74 58.4104 33.9094C58.2388 34.0788 57.9392 34.3739 57.7446 34.5651C57.3285 34.9742 56.3456 35.9421 55.8932 36.3884C55.7981 36.4823 55.6405 36.6374 55.5432 36.733C55.3101 36.9618 53.8232 38.4254 53.6059 38.6398C53.5127 38.7318 53.3553 38.8869 53.2561 38.9844C53.157 39.0819 52.9964 39.2399 52.8992 39.3356C52.8021 39.4313 52.6431 39.5879 52.546 39.6836C52.1764 40.0476 52.001 40.2201 51.7503 40.4662C51.6079 40.606 51.351 40.8589 51.1795 41.0282C51.0078 41.1976 50.754 41.4475 50.6155 41.5836C50.4769 41.7197 50.2231 41.9696 50.0513 42.1389C49.8795 42.3082 49.5401 42.6424 49.2968 42.8815C49.0537 43.1207 48.7203 43.4488 48.5561 43.6108C48.3918 43.7727 48.1533 44.0076 48.0261 44.1327C47.5614 44.5899 47.4467 44.7027 47.0128 45.1294C46.7697 45.3686 46.4487 45.6847 46.2996 45.8321C46.1504 45.9793 45.9151 46.2112 45.7766 46.3473C45.6381 46.4834 45.4452 46.673 45.3479 46.7687C45.2506 46.8643 44.7368 47.3701 44.2061 47.8926C43.6754 48.4152 43.1402 48.9421 43.0168 49.0635C42.8934 49.185 42.655 49.4198 42.4871 49.5855C42.3191 49.7512 41.9032 50.1606 41.5628 50.4954C40.6753 51.3681 40.4372 51.6023 40.1213 51.9136C40.0503 51.9836 39.7508 52.2787 39.4558 52.5694C39.1607 52.8602 38.7629 53.2515 38.5718 53.4391C38.3806 53.6266 38.0839 53.9187 37.9124 54.0881C37.5335 54.4621 37.3551 54.638 36.948 55.0383C36.7759 55.2075 36.3782 55.5989 36.0642 55.908C34.6773 57.2731 34.5577 57.3908 34.4302 57.5156C33.864 58.0698 33.7446 58.8832 34.1292 59.5663C34.2293 59.7441 34.3116 59.8439 34.5554 60.0829C34.7421 60.2659 34.9307 60.4514 35.2654 60.7812C35.4542 60.9672 35.7032 61.2124 35.9272 61.4328C35.9989 61.5033 36.3786 61.877 36.7708 62.2632C37.5744 63.0543 37.5862 63.0653 37.7448 63.1694C38.1434 63.4309 38.6244 63.5141 39.1029 63.4044C39.4143 63.3331 39.671 63.1873 39.9454 62.9257C40.0463 62.8296 40.2507 62.6304 40.3996 62.483C40.8128 62.0742 41.106 61.7854 41.3908 61.506C41.5333 61.3663 41.7842 61.1194 41.9483 60.9574C42.1125 60.7954 42.3508 60.5605 42.4779 60.4354C42.6051 60.3103 42.8435 60.0755 43.0078 59.9134C43.172 59.7515 43.527 59.4023 43.7965 59.1374C44.0661 58.8726 44.3047 58.6378 44.3268 58.6156C44.3605 58.5817 45.8505 57.1146 46.2633 56.7087C47.1151 55.8713 47.662 55.3331 47.8067 55.1901C47.9036 55.0943 48.0609 54.9393 48.1563 54.8454C48.2517 54.7516 48.4092 54.5966 48.5063 54.5009C48.6035 54.4052 48.7611 54.2501 48.8564 54.1563C48.9518 54.0625 49.3876 53.6335 49.8249 53.2029C50.2622 52.7723 50.6996 52.3418 50.797 52.2462C50.8944 52.1506 51.0503 51.997 51.1436 51.905C51.2367 51.8129 51.3742 51.6774 51.4491 51.6038C51.6948 51.3624 53.3467 49.7362 53.6036 49.483C53.7417 49.3467 53.9803 49.1119 54.1338 48.9611C54.2874 48.8103 54.5473 48.5544 54.7115 48.3924C54.8757 48.2304 55.2091 47.9022 55.4523 47.6632C55.6956 47.424 56.0534 47.0718 56.2475 46.8804C56.6079 46.5252 56.7052 46.4293 57.2535 45.8902C57.4257 45.721 57.5865 45.5624 57.6109 45.5379C57.6353 45.5134 57.8525 45.2997 58.0936 45.063C58.3346 44.8263 58.6875 44.4789 58.8778 44.2911C59.0681 44.1034 59.3278 43.8474 59.4551 43.7223C59.5824 43.5973 59.8424 43.3414 60.0331 43.1537C60.2237 42.966 60.4563 42.7373 60.55 42.6454C60.6437 42.5534 60.8425 42.3577 60.9918 42.2105C61.3635 41.8439 61.5782 41.6325 61.7393 41.4745C61.9342 41.2833 63.1434 40.0923 63.4649 39.7749C63.6141 39.6277 63.8529 39.3928 63.9955 39.2532C64.1381 39.1135 64.3096 38.945 64.3765 38.8786C64.4435 38.8123 64.5779 38.6798 64.6751 38.5841C64.7724 38.4884 64.9527 38.3108 65.076 38.1893C65.2728 37.9953 66.212 37.071 66.7142 36.577C66.8114 36.4813 66.9706 36.3248 67.0672 36.229C67.2684 36.0295 67.7129 35.592 67.9437 35.3658C68.2149 35.1004 68.5272 34.7929 69.2627 34.068C70.3797 32.9676 70.4463 32.9022 70.8464 32.5092C70.9892 32.3695 71.2395 32.1225 71.4035 31.9605C72.106 31.2672 72.2626 31.1158 72.359 31.0352C72.4872 30.9278 72.608 30.7859 72.6982 30.6373C72.7922 30.4815 72.901 30.0905 72.8982 29.9181C72.8958 29.7837 72.8366 29.4778 72.7647 29.227C72.7209 29.0738 72.4562 28.121 72.2617 27.4154C72.2351 27.3193 72.1843 27.1353 72.1487 27.0063C71.9812 26.4001 71.9527 26.2936 71.9216 26.1574C71.8469 25.8281 71.6471 25.4983 71.3799 25.2641C71.2903 25.1856 71.2245 25.1396 71.072 25.0485L70.9601 24.9816L48.4386 18.9451C36.0517 15.625 25.8945 12.9055 25.8668 12.9017ZM10.4254 18.1916C10.262 18.1801 10.1046 18.1905 9.93117 18.2245C9.85069 18.2402 9.77604 18.2568 9.76531 18.2612C9.75458 18.2657 9.54895 18.3199 9.30833 18.3817C8.90369 18.4855 8.62739 18.5571 8.02303 18.7145C7.56463 18.8339 7.17329 18.9355 6.94337 18.9947C5.50772 19.3644 5.47724 19.3736 5.25266 19.5065C4.9244 19.7008 4.69943 19.9589 4.55067 20.3118C4.39208 20.6881 4.38237 21.0361 4.51687 21.5232C4.62241 21.9053 4.7436 22.3448 4.80991 22.5858C4.84465 22.7122 4.90288 22.9231 4.93931 23.0546C4.97576 23.1861 5.03521 23.4012 5.07145 23.5326C5.13271 23.7548 5.29874 24.3541 5.41781 24.783C5.44589 24.8842 5.49725 25.0703 5.53194 25.1966C5.56662 25.3229 5.6248 25.5338 5.6612 25.6653C5.84528 26.3302 5.9096 26.5628 6.01185 26.9339C6.15085 27.4382 6.31296 28.0244 6.3703 28.2301C6.3943 28.3161 6.4606 28.556 6.51767 28.7633C6.57472 28.9705 6.6432 29.2186 6.66985 29.3147C6.72624 29.5181 6.81785 29.8496 6.91119 30.188C6.94745 30.3194 7.05949 30.7248 7.16019 31.0889C7.35868 31.8065 7.4375 32.0918 7.53723 32.4539C7.57272 32.5827 7.62477 32.771 7.6529 32.8721C7.68103 32.9733 7.7416 33.1925 7.78747 33.3593C7.83342 33.5261 7.89964 33.766 7.93467 33.8924C7.96969 34.0189 8.13095 34.6021 8.293 35.1886C8.45505 35.775 8.61064 36.3377 8.63872 36.4388C8.66687 36.54 8.72745 36.7592 8.77332 36.926C8.81926 37.0928 8.88543 37.3327 8.92052 37.4591C8.95548 37.5855 9.08819 38.0654 9.21534 38.5254C9.34249 38.9855 9.47515 39.4653 9.51017 39.5918C9.54514 39.7182 9.60462 39.9333 9.64232 40.0698C9.68001 40.2063 9.73937 40.4214 9.77427 40.5478C9.80917 40.6742 9.87668 40.9182 9.92428 41.0902C9.9719 41.2621 10.069 41.6136 10.1401 41.8714C10.2111 42.1292 10.298 42.4436 10.3332 42.5701C10.3683 42.6965 10.4348 42.9365 10.4808 43.1033C10.6358 43.6645 10.6912 43.8651 10.7575 44.1052C10.7938 44.2367 10.8533 44.4518 10.8896 44.5832C10.926 44.7147 11.0301 45.0911 11.121 45.4198C11.2119 45.7485 11.3149 46.1207 11.3499 46.2472C11.5281 46.8908 11.5832 47.0919 11.6045 47.1752C11.6172 47.2254 11.6311 47.275 11.6353 47.2855C11.6395 47.296 11.6816 47.4451 11.7288 47.6169C11.9862 48.5522 12.0391 48.744 12.2386 49.4644C12.3296 49.7931 12.4327 50.1654 12.4678 50.2918C12.5028 50.4182 12.569 50.6581 12.6149 50.8249C12.6608 50.9917 12.7201 51.2067 12.7467 51.3028C12.7733 51.3989 12.8418 51.6471 12.8989 51.8543C12.9559 52.0615 13.0222 52.3014 13.0462 52.3874C13.0701 52.4735 13.1503 52.7631 13.2244 53.031C13.2984 53.2989 13.3878 53.6216 13.4228 53.7481C13.458 53.8745 13.5322 54.1434 13.5879 54.3456C13.7391 54.8948 13.8112 55.1556 13.8861 55.4256C13.9234 55.5596 13.9742 55.7437 13.9991 55.8347C14.0993 56.2006 14.3007 56.9289 14.4365 57.4158C14.4731 57.5474 14.5419 57.7956 14.5893 57.9675C14.6367 58.1394 14.704 58.3834 14.7389 58.5098C14.8148 58.7846 14.9122 59.1378 15.0963 59.8057C15.2417 60.3328 15.3147 60.5965 15.4222 60.9825C15.4589 61.114 15.5264 61.3581 15.5722 61.5248C15.618 61.6916 15.6785 61.9108 15.7065 62.012C15.7347 62.1131 15.7862 62.2993 15.8211 62.4257C15.856 62.5521 15.9966 63.0609 16.1336 63.5564C16.2705 64.0518 16.4359 64.6515 16.501 64.889C16.643 65.4066 16.67 65.4849 16.7711 65.6724C16.9804 66.0602 17.2522 66.3166 17.6085 66.4623C17.7005 66.5 18.314 66.6687 19.6027 67.0101L21.464 67.5034L21.6098 67.5027C22.0754 67.5002 22.4632 67.3267 22.8379 66.953C22.9048 66.8861 23.3359 66.4617 24.4687 65.3471C24.801 65.0203 24.9534 64.8703 25.0737 64.7517C25.1447 64.6818 25.4438 64.3874 25.7384 64.0977C26.033 63.8079 26.2928 63.5519 26.3157 63.5288C26.3387 63.5058 26.5565 63.2914 26.7997 63.0523C27.043 62.8132 27.4009 62.4609 27.595 62.2695C27.7891 62.0781 28.0244 61.8462 28.1179 61.7542C28.2114 61.6622 28.5877 61.292 28.9543 60.9314C29.3207 60.5708 29.697 60.2005 29.7904 60.1085C29.8838 60.0165 29.9817 59.9201 30.0079 59.8944C30.0342 59.8686 30.3125 59.5947 30.6265 59.2856C30.9405 58.9764 31.3749 58.5489 31.5918 58.3356C32.1562 57.7803 33.1805 56.7715 33.7863 56.1743C34.3378 55.6307 35.4181 54.5677 35.86 54.1339C36.0024 53.9942 36.1377 53.8609 36.1607 53.8378C36.1837 53.8146 36.4221 53.5797 36.6904 53.3158C36.9588 53.0518 37.3004 52.7154 37.4496 52.5682C37.7159 52.3053 38.4258 51.6064 38.7613 51.2768C38.8549 51.1849 39.2892 50.7574 39.7265 50.3269C40.1638 49.8963 40.5996 49.4672 40.6949 49.3734C40.7904 49.2796 40.9479 49.1245 41.045 49.0289C41.1422 48.9332 41.3011 48.7766 41.3983 48.6809C41.4954 48.5853 41.653 48.4302 41.7483 48.3364C41.8437 48.2426 42.2 47.8918 42.5402 47.5569C42.8803 47.2221 43.2382 46.8698 43.3355 46.7742C43.7718 46.345 43.8876 46.231 44.4673 45.6603C44.8056 45.3274 45.1847 44.9541 45.3099 44.8307C45.5596 44.5845 46.0529 44.0989 46.3193 43.8371C46.4129 43.7451 46.5688 43.5915 46.6656 43.4958C46.7625 43.4001 46.9214 43.2434 47.0187 43.1478C47.4082 42.765 48.8998 41.2966 49.1799 41.0202C49.3441 40.8582 49.6982 40.5098 49.9668 40.246C50.2354 39.9821 50.474 39.7473 50.497 39.7241C50.5201 39.7009 50.7594 39.4653 51.0288 39.2005C51.2983 38.9356 51.6531 38.5863 51.8173 38.4243C51.9815 38.2624 52.1955 38.0516 52.2928 37.9559C52.3901 37.8603 52.5735 37.6796 52.7004 37.5545C52.8273 37.4293 53.1057 37.1554 53.3191 36.9457C53.5325 36.736 53.7836 36.4893 53.8772 36.3973C54.0907 36.1873 54.7027 35.5835 55.083 35.2076C55.2422 35.0502 55.4085 34.8727 55.4525 34.813C55.8426 34.2841 55.8811 33.5456 55.5479 32.9805C55.4489 32.8125 55.3632 32.7072 55.182 32.5307C55.1026 32.4534 54.9574 32.311 54.8594 32.2143C54.3651 31.7267 53.9463 31.3141 53.6148 30.9878C53.3027 30.6806 53.0982 30.479 52.6446 30.0318C51.946 29.343 51.8868 29.3014 51.4339 29.1803C51.1044 29.0921 50.9728 29.0838 50.6894 29.1332C50.4956 29.1671 50.3866 29.2015 50.2158 29.2826C49.9995 29.3855 49.9139 29.456 49.4406 29.9228C49.3136 30.0479 49.1333 30.2256 49.0398 30.3176C48.9463 30.4096 48.772 30.5812 48.6524 30.6989C48.5328 30.8167 48.3584 30.9882 48.2647 31.0802C48.1711 31.1722 47.9906 31.3498 47.8636 31.4749C47.6434 31.692 47.5136 31.8197 47.1157 32.2108C47.0184 32.3064 46.7557 32.5654 46.5318 32.7864C46.0982 33.2143 45.9177 33.3917 45.6336 33.6692C45.5358 33.7647 45.4341 33.8648 45.4076 33.8918C45.3811 33.9187 45.1399 34.1566 44.8715 34.4206C44.6031 34.6845 44.2492 35.0329 44.0848 35.1949C43.672 35.6016 43.4318 35.8382 42.794 36.4662C42.6967 36.5618 42.5007 36.7545 42.3584 36.8942C42.0743 37.173 41.9014 37.3435 41.4825 37.7575C41.3297 37.9085 41.1338 38.1011 41.0473 38.1856C40.9607 38.2701 40.7218 38.5049 40.5165 38.7073C40.3112 38.9098 39.993 39.2229 39.8096 39.4031C39.6261 39.5833 39.351 39.8544 39.1982 40.0053C39.0453 40.1563 38.807 40.3912 38.6685 40.5274C38.3048 40.8848 38.093 41.0933 37.8393 41.3436C37.7161 41.4651 37.5541 41.6246 37.4791 41.6982C37.2897 41.8842 35.8328 43.3182 35.4537 43.6919C35.2819 43.8612 35.028 44.1111 34.8895 44.2472C34.7509 44.3833 34.4756 44.6542 34.2776 44.8493C33.6101 45.5067 33.2394 45.8717 32.9588 46.1472C32.8053 46.298 32.5455 46.5539 32.3815 46.716C32.2175 46.878 31.8842 47.2062 31.6409 47.4453C31.3976 47.6844 31.0765 48.0006 30.9273 48.1478C30.7781 48.2951 30.4844 48.5841 30.2745 48.7901C29.82 49.2361 28.486 50.5497 28.4195 50.6167C28.3938 50.6426 28.2349 50.7991 28.0663 50.9646C27.5399 51.4813 27.5105 51.5101 27.1074 51.9078C26.891 52.1214 26.3559 52.6483 25.9184 53.0788C25.0652 53.9183 24.882 54.0988 24.6069 54.3701C24.5098 54.4658 24.3691 54.6043 24.2941 54.6778C24.1329 54.836 23.3204 55.6354 22.8866 56.0626C22.7185 56.2282 22.5102 56.4346 22.4239 56.5211C22.3376 56.6078 22.2619 56.6774 22.2556 56.6761C22.2494 56.6747 22.2193 56.5807 22.1888 56.4672C22.1172 56.2009 21.9234 55.4976 21.8177 55.1208C21.7525 54.8881 21.3124 53.2952 21.1752 52.7952C21.1599 52.7396 21.1086 52.5535 21.0612 52.3816C21.0138 52.2098 20.9453 51.9616 20.9091 51.8302C20.8729 51.6988 20.8222 51.5166 20.7963 51.4254C20.7511 51.2661 20.4546 50.1931 20.3187 49.6973C20.2828 49.5659 20.2247 49.355 20.1897 49.2286C20.1547 49.1022 20.0958 48.8892 20.0588 48.7552C19.9825 48.4789 19.9515 48.3669 19.6301 47.2061C19.5027 46.746 19.369 46.262 19.333 46.1306C19.2969 45.9992 19.2377 45.7842 19.2013 45.6527C19.1649 45.5213 19.1066 45.3103 19.0717 45.1839C18.8727 44.4634 18.8349 44.3268 18.777 44.1176C18.742 43.9912 18.6529 43.6685 18.5789 43.4006C18.505 43.1327 18.4157 42.81 18.3806 42.6836C18.2546 42.2293 18.1115 41.7121 18.0196 41.3782C17.8264 40.677 17.7556 40.4204 17.6435 40.017C17.5801 39.7889 17.5179 39.5616 17.5052 39.5118C17.4925 39.462 17.4787 39.4127 17.4746 39.4022C17.4704 39.3917 17.4284 39.2425 17.3812 39.0707C17.2929 38.7489 17.2139 38.4629 17.1011 38.0551C17.0654 37.9262 17.0067 37.7132 16.9708 37.5818C16.8349 37.0861 16.5384 36.0131 16.4932 35.8537C16.4477 35.6931 16.4104 35.5584 16.2286 34.8976C16.1813 34.7258 16.1128 34.4776 16.0763 34.3461C16.0397 34.2146 15.9895 34.0326 15.9646 33.9417C15.9397 33.8508 15.8803 33.6356 15.8326 33.4637C15.7849 33.2917 15.682 32.9195 15.6039 32.6364C15.5259 32.3533 15.432 32.0141 15.3953 31.8825C15.3586 31.751 15.2665 31.416 15.1906 31.1382C15.1147 30.8604 15.0492 30.6245 15.0449 30.614C15.0407 30.6035 14.9748 30.3676 14.8987 30.0897C14.7443 29.527 14.5549 28.8402 14.4272 28.3802C14.3809 28.2133 14.3043 27.9362 14.2571 27.7643C14.21 27.5925 14.1414 27.3443 14.1047 27.2128C14.0399 26.9802 13.8615 26.3338 13.6506 25.5675C13.5936 25.3603 13.518 25.0872 13.4824 24.9607C13.417 24.7271 13.1436 23.7382 12.9412 23.0027C12.8799 22.7803 12.7177 22.1929 12.5805 21.6974C12.4434 21.2019 12.3028 20.6931 12.2681 20.5668C12.2333 20.4404 12.1751 20.2295 12.1387 20.098C12.1023 19.9665 12.0417 19.7473 12.0039 19.6107C11.8913 19.2032 11.787 18.9949 11.5833 18.7708C11.3464 18.5101 11.117 18.3677 10.7695 18.2659C10.6221 18.2227 10.5034 18.1971 10.4254 18.1916Z"
                  />
                </g>
                <defs>
                  <filter
                    id="filter0_d_2224_2761"
                    x="0.42334"
                    y="0.385742"
                    width="76.4749"
                    height="75.1177"
                    filterUnits="userSpaceOnUse"
                    colorInterpolationFilters="sRGB"
                  >
                    <feFlood floodOpacity="0" result="BackgroundImageFix" />
                    <feColorMatrix
                      in="SourceAlpha"
                      type="matrix"
                      values="0 0 0 0 0 0 0 0 0 0 0 0 0 0 0 0 0 0 127 0"
                      result="hardAlpha"
                    />
                    <feOffset dy="4" />
                    <feGaussianBlur stdDeviation="2" />
                    <feComposite in2="hardAlpha" operator="out" />
                    <feColorMatrix
                      type="matrix"
                      values="0 0 0 0 0 0 0 0 0 0 0 0 0 0 0 0 0 0 0.25 0"
                    />
                    <feBlend
                      mode="normal"
                      in2="BackgroundImageFix"
                      result="effect1_dropShadow_2224_2761"
                    />
                    <feBlend
                      mode="normal"
                      in="SourceGraphic"
                      in2="effect1_dropShadow_2224_2761"
                      result="shape"
                    />
                  </filter>
                </defs>
              </svg>