<svg
              width="30"
              height="30"
              viewBox="0 0 30 30"
              fill="none"
              xmlns="http://www.w3.org/2000/svg"
            >
              <rect width="30" height="30" rx="7" fill="#FF2D55" />
              <path
                d="M6.45312 18.3184C6.2832 18.3711 6.11914 18.3564 5.96094 18.2744C5.80859 18.1924 5.70312 18.0576 5.64453 17.8701C5.47461 17.2432 5.36035 16.6514 5.30176 16.0947C5.24902 15.5381 5.24023 15.002 5.27539 14.4863C5.29297 14.2871 5.36621 14.1318 5.49512 14.0205C5.62402 13.9092 5.78809 13.8652 5.9873 13.8887C6.14551 13.9062 6.27441 13.9736 6.37402 14.0908C6.47949 14.208 6.5293 14.3574 6.52344 14.5391C6.51172 15.1543 6.53223 15.6904 6.58496 16.1475C6.64355 16.5986 6.73145 17.0557 6.84863 17.5186C6.88965 17.7002 6.87207 17.8672 6.7959 18.0195C6.72559 18.166 6.61133 18.2656 6.45312 18.3184ZM6.02246 12.834C5.85254 12.7695 5.72949 12.6465 5.65332 12.4648C5.58301 12.2773 5.59473 12.0635 5.68848 11.8232C6.09277 10.7568 6.61426 9.81641 7.25293 9.00195C7.8916 8.18164 8.62402 7.49316 9.4502 6.93652C10.2764 6.37402 11.1729 5.95215 12.1396 5.6709C13.1123 5.38379 14.1348 5.24023 15.207 5.24023C16.0566 5.24023 16.8359 5.32227 17.5449 5.48633C18.2539 5.64453 18.9541 5.93457 19.6455 6.35645C19.8096 6.45605 19.9238 6.57617 19.9883 6.7168C20.0527 6.85742 20.0439 7.00977 19.9619 7.17383C19.8799 7.35547 19.748 7.45508 19.5664 7.47266C19.3906 7.48437 19.2002 7.4375 18.9951 7.33203C18.4619 7.0625 17.8906 6.85449 17.2812 6.70801C16.6719 6.56152 15.9805 6.48828 15.207 6.48828C14 6.48828 12.8486 6.71973 11.7529 7.18262C10.6631 7.64551 9.69629 8.31641 8.85254 9.19531C8.01465 10.0742 7.36133 11.1465 6.89258 12.4121C6.82227 12.5996 6.70508 12.7344 6.54102 12.8164C6.37695 12.8926 6.2041 12.8984 6.02246 12.834ZM24.8223 16.2441C24.6523 16.2441 24.5117 16.1855 24.4004 16.0684C24.2891 15.9453 24.2217 15.79 24.1982 15.6025C24.0576 14.0498 23.7061 12.7227 23.1436 11.6211C22.5869 10.5195 21.8516 9.52637 20.9375 8.6416C20.791 8.50098 20.709 8.34863 20.6914 8.18457C20.6797 8.01465 20.7324 7.86816 20.8496 7.74512C20.9551 7.62207 21.0928 7.55176 21.2627 7.53418C21.4385 7.5166 21.5996 7.5752 21.7461 7.70996C22.4375 8.34863 23.0352 9.04004 23.5391 9.78418C24.043 10.5225 24.4502 11.3633 24.7607 12.3066C25.0713 13.2441 25.2852 14.3311 25.4023 15.5674C25.4199 15.7549 25.373 15.916 25.2617 16.0508C25.1504 16.1797 25.0039 16.2441 24.8223 16.2441ZM7.36719 20.8936C7.2793 20.7646 7.24707 20.6211 7.27051 20.4629C7.29395 20.2988 7.37012 20.1523 7.49902 20.0234C7.68652 19.8477 7.83301 19.6309 7.93848 19.373C8.0498 19.1152 8.10547 18.834 8.10547 18.5293C8.09961 18.2246 8.0498 17.9053 7.95605 17.5713C7.8623 17.2373 7.76855 16.874 7.6748 16.4814C7.58105 16.083 7.53418 15.6377 7.53418 15.1455C7.53418 14.0967 7.7334 13.1123 8.13184 12.1924C8.53027 11.2666 9.08105 10.4551 9.78418 9.75781C10.4873 9.05469 11.2988 8.50391 12.2188 8.10547C13.1445 7.70117 14.1318 7.49902 15.1807 7.49902C16.4111 7.49902 17.5244 7.7334 18.5205 8.20215C19.5225 8.6709 20.3809 9.33887 21.0957 10.2061C21.8105 11.0674 22.3613 12.0986 22.748 13.2998C23.1348 14.4951 23.3281 15.8252 23.3281 17.29C23.3281 18.4092 23.2432 19.3643 23.0732 20.1553C22.9092 20.9404 22.7422 21.5586 22.5723 22.0098C22.5078 22.1855 22.3848 22.3027 22.2031 22.3613C22.0273 22.4258 21.8604 22.4199 21.7021 22.3438C21.5557 22.2734 21.4531 22.1562 21.3945 21.9922C21.3418 21.8281 21.3506 21.6641 21.4209 21.5C21.5791 21.125 21.7285 20.5889 21.8691 19.8916C22.0098 19.1885 22.0801 18.3242 22.0801 17.2988C22.0742 15.5938 21.7871 14.0996 21.2188 12.8164C20.6504 11.5273 19.8477 10.5283 18.8105 9.81934C17.7793 9.10449 16.5693 8.74707 15.1807 8.74707C14.3018 8.74707 13.4756 8.91406 12.7021 9.24805C11.9287 9.58203 11.249 10.0449 10.6631 10.6367C10.0771 11.2227 9.61719 11.9023 9.2832 12.6758C8.94922 13.4434 8.78223 14.2666 8.78223 15.1455C8.78223 15.6436 8.82617 16.0684 8.91406 16.4199C9.00195 16.7656 9.08984 17.1025 9.17773 17.4307C9.27148 17.7529 9.31836 18.1221 9.31836 18.5381C9.31836 19.0303 9.23047 19.4932 9.05469 19.9268C8.88477 20.3604 8.63574 20.7178 8.30762 20.999C8.15527 21.1221 7.98828 21.1748 7.80664 21.1572C7.625 21.1338 7.47852 21.0459 7.36719 20.8936ZM9.65234 22.6074C9.46484 22.707 9.28613 22.7305 9.11621 22.6777C8.95215 22.625 8.83496 22.5195 8.76465 22.3613C8.70605 22.2207 8.7002 22.0742 8.74707 21.9219C8.7998 21.7695 8.91406 21.6318 9.08984 21.5088C9.40039 21.292 9.65527 21.0459 9.85449 20.7705C10.0596 20.4951 10.2236 20.1758 10.3467 19.8125C10.4053 19.6367 10.5078 19.5078 10.6543 19.4258C10.8066 19.3438 10.9619 19.3291 11.1201 19.3818C11.2842 19.4404 11.4014 19.5488 11.4717 19.707C11.5479 19.8652 11.5596 20.0234 11.5068 20.1816C11.4189 20.4863 11.2725 20.8027 11.0674 21.1309C10.8682 21.459 10.6426 21.7549 10.3906 22.0186C10.1387 22.2881 9.89258 22.4844 9.65234 22.6074ZM11.5859 17.4307C11.6445 17.6123 11.6445 17.7852 11.5859 17.9492C11.5273 18.1074 11.416 18.2188 11.252 18.2832C11.0586 18.3594 10.8799 18.3623 10.7158 18.292C10.5518 18.2217 10.4346 18.0928 10.3643 17.9053C10.2236 17.5479 10.0918 17.1377 9.96875 16.6748C9.85156 16.2061 9.79297 15.7051 9.79297 15.1719C9.79297 14.4219 9.93359 13.7217 10.2148 13.0713C10.4961 12.415 10.8828 11.8408 11.375 11.3486C11.873 10.8506 12.4473 10.4609 13.0977 10.1797C13.7539 9.89844 14.457 9.75781 15.207 9.75781C15.6699 9.75781 16.1035 9.81055 16.5078 9.91602C16.9121 10.0156 17.2666 10.1562 17.5713 10.3379C17.7529 10.4375 17.8672 10.5723 17.9141 10.7422C17.9609 10.9121 17.9434 11.0762 17.8613 11.2344C17.7969 11.3633 17.6914 11.4482 17.5449 11.4893C17.4043 11.5303 17.252 11.5127 17.0879 11.4365C16.8418 11.3252 16.6309 11.2402 16.4551 11.1816C16.2852 11.1172 16.1064 11.0732 15.9189 11.0498C15.7314 11.0264 15.4941 11.0146 15.207 11.0146C14.4336 11.0146 13.7334 11.2021 13.1064 11.5771C12.4795 11.9463 11.9785 12.4443 11.6035 13.0713C11.2344 13.6982 11.0498 14.3984 11.0498 15.1719C11.0498 15.6465 11.1113 16.0684 11.2344 16.4375C11.3574 16.8008 11.4746 17.1318 11.5859 17.4307ZM18.6084 12.7461C18.4971 12.5645 18.4561 12.3828 18.4854 12.2012C18.5205 12.0137 18.623 11.876 18.793 11.7881C18.9453 11.7061 19.1064 11.6914 19.2764 11.7441C19.4521 11.7969 19.5928 11.9082 19.6982 12.0781C19.9502 12.5176 20.1787 12.9922 20.3838 13.502C20.5947 14.0059 20.7617 14.5977 20.8848 15.2773C21.0078 15.957 21.0693 16.7715 21.0693 17.7207C21.0693 18.9688 20.8994 20.1641 20.5596 21.3066C20.2256 22.4434 19.7773 23.3926 19.2148 24.1543C19.1035 24.3008 18.9541 24.3799 18.7666 24.3916C18.5791 24.4092 18.415 24.3535 18.2744 24.2246C18.1572 24.1133 18.0986 23.9727 18.0986 23.8027C18.0986 23.6387 18.1484 23.4893 18.248 23.3545C18.7344 22.7568 19.1211 21.957 19.4082 20.9551C19.6953 19.9531 19.8389 18.8867 19.8389 17.7559C19.8389 16.7012 19.7334 15.7607 19.5225 14.9346C19.3174 14.1025 19.0127 13.373 18.6084 12.7461ZM11.5596 23.7939C11.4189 23.917 11.2578 23.9697 11.0762 23.9521C10.8945 23.9404 10.748 23.8525 10.6367 23.6885C10.543 23.5479 10.5078 23.3984 10.5312 23.2402C10.5605 23.082 10.6455 22.9414 10.7861 22.8184C11.3896 22.332 11.8496 21.7139 12.166 20.9639C12.4883 20.2139 12.6465 19.3965 12.6406 18.5117C12.6348 18.0957 12.585 17.6826 12.4912 17.2725C12.4033 16.8623 12.3125 16.4639 12.2188 16.0771C12.1309 15.6846 12.0869 15.3125 12.0869 14.9609C12.0869 14.3809 12.2217 13.874 12.4912 13.4404C12.7607 13.001 13.1299 12.6582 13.5986 12.4121C14.0674 12.1602 14.5977 12.0342 15.1895 12.0342C16.0098 12.0342 16.6777 12.2656 17.1934 12.7285C17.709 13.1855 18.0869 13.8301 18.3271 14.6621C18.5732 15.4941 18.6963 16.4697 18.6963 17.5889C18.7021 18.5967 18.5908 19.5752 18.3623 20.5244C18.1338 21.4736 17.8203 22.3262 17.4219 23.082C17.0234 23.8438 16.5781 24.4502 16.0859 24.9014C15.9395 25.0361 15.7725 25.0918 15.585 25.0684C15.4033 25.0449 15.2598 24.957 15.1543 24.8047C15.0664 24.6699 15.0342 24.5234 15.0576 24.3652C15.0869 24.207 15.166 24.0723 15.2949 23.9609C15.752 23.5684 16.1533 23.0498 16.499 22.4053C16.8447 21.7666 17.1084 21.043 17.29 20.2344C17.4775 19.4258 17.5566 18.5732 17.5273 17.6768C17.5039 16.7979 17.4102 16.0303 17.2461 15.374C17.082 14.7119 16.833 14.1992 16.499 13.8359C16.165 13.4668 15.7285 13.2822 15.1895 13.2822C14.627 13.2822 14.1729 13.4434 13.8271 13.7656C13.4873 14.0879 13.3174 14.5215 13.3174 15.0664C13.3174 15.3477 13.3643 15.6523 13.458 15.9805C13.5518 16.3027 13.6455 16.6689 13.7393 17.0791C13.8389 17.4893 13.8916 17.9668 13.8975 18.5117C13.9033 19.5781 13.7012 20.5742 13.291 21.5C12.8867 22.4258 12.3096 23.1904 11.5596 23.7939ZM13.6953 24.5234C13.543 24.6348 13.373 24.6758 13.1855 24.6465C13.0039 24.623 12.8691 24.5381 12.7812 24.3916C12.6875 24.251 12.6553 24.0986 12.6846 23.9346C12.7139 23.7705 12.7988 23.6299 12.9395 23.5127C13.2441 23.2666 13.5195 22.9736 13.7656 22.6338C14.0117 22.2939 14.2314 21.8838 14.4248 21.4033C14.4951 21.2334 14.6006 21.1104 14.7412 21.0342C14.8877 20.9521 15.0547 20.9434 15.2422 21.0078C15.4121 21.0605 15.5234 21.1719 15.5762 21.3418C15.6348 21.5059 15.6348 21.667 15.5762 21.8252C15.3828 22.3818 15.1104 22.9033 14.7588 23.3896C14.4072 23.8818 14.0527 24.2598 13.6953 24.5234ZM16.1826 19.4434C16.1475 19.6367 16.0566 19.7832 15.9102 19.8828C15.7695 19.9824 15.6084 20.0176 15.4268 19.9883C15.2451 19.959 15.1133 19.874 15.0312 19.7334C14.9492 19.5928 14.9229 19.4375 14.9521 19.2676C15.0166 18.8809 15.0488 18.4912 15.0488 18.0986C15.0547 17.7061 15.0283 17.3047 14.9697 16.8945C14.9111 16.4785 14.8145 16.0508 14.6797 15.6113C14.627 15.4297 14.6387 15.2686 14.7148 15.1279C14.7969 14.9814 14.9199 14.8818 15.084 14.8291C15.2539 14.7764 15.4121 14.791 15.5586 14.873C15.7109 14.9551 15.8193 15.0957 15.8838 15.2949C16.0303 15.752 16.1357 16.2207 16.2002 16.7012C16.2705 17.1758 16.3027 17.6475 16.2969 18.1162C16.2969 18.5791 16.2588 19.0215 16.1826 19.4434Z"
                fill="white"
              />
            </svg>